# xmcd
#
# Track frame offsets:
#	150
#	11592
#	22272
#	36667
#	50133
#	64718
#	79810
#	91210
#	102634
#	115183
#	127255
#	136685
#	149381
#	160126
#	172013
#
# Disc length: 2465 seconds
#
# Revision: 0
# Processed by: cddbd v1.5.2PL0 Copyright (c) Steve Scherf et al.
# Submitted via: audiograbber 1.83.01
#
DISCID=dc099f0f
DTITLE=Various Artist - HORIZONS CD2
DYEAR=1900
DGENRE=Country
TTITLE0=Tom T. Hall - Ravishing Ruby
TTITLE1=Johnny Cash - You Winn Again
TTITLE2=B. J. Thomas - I Am So Lonesome
TTITLE3=Pattie Page - Tennesee Waltz
TTITLE4=George Jones - A Good Year For The Roses
TTITLE5=Frankie Laine - Sixteen Tons
TTITLE6=Willie Nelson - Broken Promise
TTITLE7=Ray Price - Lret It Rain Let Her Cry
TTITLE8=Johnny Cash - I Walk The Line
TTITLE9=Roger Miller - King Off The Road
TTITLE10=Willie Nelson - No Tomorrow In Sight
TTITLE11=Frankie Laine - High Noon
TTITLE12=Ricky Nelson - Travelin Man
TTITLE13=Ernest Tubb - Walking The Floor Over You
TTITLE14=The Statler Brothers - Do You Remember These
EXTD=
EXTT0=
EXTT1=
EXTT2=
EXTT3=
EXTT4=
EXTT5=
EXTT6=
EXTT7=
EXTT8=
EXTT9=
EXTT10=
EXTT11=
EXTT12=
EXTT13=
EXTT14=
PLAYORDER=
